<svg xmlns="http://www.w3.org/2000/svg" viewBox="0 0 200 200">
  <defs>
    <linearGradient id="bgGradient" x1="0%" y1="0%" x2="100%" y2="100%">
      <stop offset="0%" style="stop-color:#8b5cf6"/>
      <stop offset="50%" style="stop-color:#7c3aed"/>
      <stop offset="100%" style="stop-color:#6d28d9"/>
    </linearGradient>
  </defs>
  <!-- Circle background -->
  <circle cx="100" cy="100" r="100" fill="url(#bgGradient)"/>
  <!-- Squirrel silhouette -->
  <path d="
    M 65 170
    C 55 165, 50 155, 52 145
    C 54 135, 60 125, 70 120
    C 75 117, 80 115, 85 115
    L 85 110
    C 80 105, 78 95, 80 85
    C 82 75, 90 65, 100 60
    C 105 57, 110 56, 115 56
    C 120 56, 125 58, 130 62
    C 140 70, 145 80, 145 92
    C 145 100, 142 108, 137 115
    L 140 118
    C 150 120, 158 128, 160 140
    C 162 152, 155 165, 140 170
    Z
    M 118 75
    C 122 75, 125 78, 125 82
    C 125 86, 122 89, 118 89
    C 114 89, 111 86, 111 82
    C 111 78, 114 75, 118 75
    Z
  " fill="white"/>
  <!-- Tail - flowing upward -->
  <path d="
    M 58 145
    C 40 130, 30 100, 35 70
    C 38 50, 50 35, 70 30
    C 85 27, 95 32, 100 40
    C 90 38, 78 42, 70 55
    C 60 72, 55 95, 60 120
    C 62 130, 60 140, 58 145
    Z
  " fill="white"/>
</svg>
